<svg width="62" height="62" viewBox="0 0 62 62" fill="none" xmlns="http://www.w3.org/2000/svg">
<circle cx="31" cy="31" r="29.5" fill="#00FFBB" stroke="#00FFA8" stroke-width="3"/>
<path d="M32.556 51.9968C29.8739 52.0451 27.2091 51.5506 24.7173 50.5422C22.2255 49.5338 19.9566 48.0318 18.043 46.1237C16.1294 44.2156 14.6095 41.9397 13.5719 39.4289C12.5344 36.9181 12 34.2227 12 31.5C12 28.7773 12.5344 26.0819 13.5719 23.5711C14.6095 21.0603 16.1294 18.7844 18.043 16.8763C19.9566 14.9682 22.2255 13.4662 24.7173 12.4578C27.2091 11.4494 29.8739 10.9549 32.556 11.0032C37.1301 10.9851 41.5714 12.5628 45.1359 15.4721L45.9555 16.1169L35.6501 27.0408L35.0148 26.7248C34.4405 26.4413 33.8208 26.2644 33.185 26.2025L32.3146 26.1251V21.5595L32.6449 21.5208C32.4336 21.5011 32.2209 21.5011 32.0096 21.5208L32.2955 21.5595V26.138L31.5458 26.3057C30.7282 26.4977 29.9665 26.8821 29.3221 27.4277L28.6867 28.0017L25.7133 24.9837L25.9102 24.7193L25.7006 24.9192C25.618 25.0095 25.5354 25.0933 25.4718 25.1772L25.7006 24.9966L28.6867 28.0274L28.2801 28.6723C27.8915 29.3015 27.6382 30.0069 27.5367 30.7423L27.4224 31.5742H23.2036L23.1655 31.2388C23.159 31.3376 23.159 31.4367 23.1655 31.5355C23.1655 31.658 23.1655 31.7741 23.1655 31.8837L23.2036 31.5935H27.416L27.5494 32.3931C27.6729 33.152 27.9592 33.8741 28.3881 34.5083L28.8392 35.1531L25.6624 38.3774L25.4019 38.1775L25.5989 38.3903C25.6788 38.473 25.7637 38.5505 25.853 38.6224L25.6752 38.3903L28.8519 35.166L29.4873 35.6883C30.1575 36.2115 30.9421 36.5632 31.7745 36.7137L32.5623 36.8555V41.06L32.2383 41.0987C32.4497 41.1184 32.6623 41.1184 32.8737 41.0987H32.5814V36.8878L33.4074 36.7717C33.9706 36.6938 34.5177 36.5239 35.0275 36.2687L35.6629 35.9527L46 46.8315L45.1868 47.4763C41.6142 50.413 37.1532 52.0096 32.556 51.9968ZM32.556 12.9378C30.1256 12.8918 27.7106 13.338 25.4521 14.2501C23.1935 15.1623 21.1368 16.5223 19.402 18.2505C17.6672 19.9787 16.2892 22.0405 15.3485 24.3155C14.4079 26.5904 13.9234 29.0328 13.9234 31.5C13.9234 33.9672 14.4079 36.4096 15.3485 38.6845C16.2892 40.9595 17.6672 43.0213 19.402 44.7495C21.1368 46.4777 23.1935 47.8377 25.4521 48.7499C27.7106 49.662 30.1256 50.1082 32.556 50.0622C36.3592 50.0794 40.0705 48.8764 43.16 46.6251L35.2372 38.2871C35.0021 38.3774 34.7607 38.4548 34.5065 38.5257V39.4866C34.8365 39.6133 35.119 39.8422 35.3139 40.1407C35.5089 40.4392 35.6065 40.7924 35.593 41.1503C35.593 42.2788 34.3223 43.0849 32.5496 43.0849C30.777 43.0849 29.5 42.2917 29.5 41.1503C29.5015 40.7818 29.6162 40.4229 29.828 40.1236C30.0398 39.8243 30.3382 39.5994 30.6817 39.4801V38.4548C30.1082 38.2858 29.5592 38.0408 29.0489 37.7261L28.1276 38.6611C28.2722 38.9841 28.3138 39.3449 28.2466 39.693C28.1793 40.0411 28.0066 40.3592 27.7525 40.6029C27.4985 40.8465 27.1758 41.0035 26.8296 41.0519C26.4833 41.1004 26.1308 41.0378 25.8213 40.873C25.2277 40.6268 24.691 40.2579 24.2456 39.7896C23.7961 39.3329 23.4417 38.789 23.2036 38.1904C23.0507 37.8786 22.9938 37.5274 23.0402 37.1824C23.0867 36.8373 23.2344 36.5145 23.4641 36.2558C23.7219 35.9977 24.052 35.8269 24.4092 35.7669C24.7664 35.7068 25.1332 35.7605 25.4591 35.9205L26.3804 34.9145C26.1465 34.4767 25.9611 34.0138 25.8276 33.5345H24.7793C24.6525 33.8677 24.4265 34.1524 24.1326 34.349C23.8387 34.5455 23.4918 34.644 23.1401 34.6308C22.0282 34.6308 21.2341 33.3411 21.2341 31.5419C21.2341 29.7428 22.0155 28.4466 23.1401 28.4466C23.5032 28.4482 23.8567 28.5646 24.1516 28.7795C24.4466 28.9945 24.6682 29.2974 24.7857 29.646H25.8022C25.9204 29.2018 26.0799 28.7699 26.2787 28.3563L25.4528 27.5116C25.1346 27.6583 24.7791 27.7005 24.4361 27.6323C24.0932 27.564 23.7797 27.3887 23.5397 27.1309C23.2996 26.873 23.1449 26.5455 23.0972 26.1941C23.0495 25.8427 23.1111 25.4849 23.2735 25.1707C23.5161 24.5682 23.8796 24.0236 24.3409 23.5715C25.6116 22.2818 27.0475 21.9464 27.8353 22.7461C28.0896 23.0077 28.2579 23.3427 28.3171 23.7053C28.3762 24.0678 28.3234 24.4401 28.1657 24.7709L28.8011 25.4158C29.2977 25.0917 29.831 24.8297 30.3895 24.6355V23.133C30.0594 23.0062 29.777 22.7774 29.582 22.4788C29.3871 22.1803 29.2895 21.8271 29.303 21.4693C29.303 20.3343 30.5737 19.5347 32.3527 19.5347C34.1317 19.5347 35.396 20.3214 35.396 21.4693C35.3954 21.838 35.2811 22.1973 35.0692 22.4968C34.8572 22.7963 34.5583 23.021 34.2143 23.1394V24.4227C34.5475 24.4929 34.8747 24.5899 35.1927 24.7129L43.0964 16.3297C40.0176 14.1109 36.3321 12.9249 32.556 12.9378Z" fill="black"/>
</svg>
