<svg width="62" height="82" viewBox="0 0 62 82" fill="none" xmlns="http://www.w3.org/2000/svg">
<circle cx="31" cy="51" r="29.5" fill="#00FFBB" stroke="#00FFA8" stroke-width="3"/>
<path d="M53.2232 18.9509C52.4534 18.9542 51.7031 19.1908 51.0732 19.6289C50.4433 20.0669 49.9641 20.6854 49.6999 21.4012H40.78C40.4844 21.4015 40.201 21.5179 39.9921 21.725L34.0455 27.6115C33.9455 27.7181 33.8678 27.8431 33.8167 27.9795C33.7657 28.1159 33.7424 28.2609 33.7482 28.4062V36.1691L32.1426 38.2589C31.8139 38.0048 31.466 37.776 31.102 37.5745V34.7637C31.102 34.471 30.9845 34.1902 30.7754 33.9833C30.5663 33.7763 30.2827 33.66 29.987 33.66C29.6913 33.66 29.4077 33.7763 29.1986 33.9833C28.9895 34.1902 28.872 34.471 28.872 34.7637V36.6916C27.7091 36.437 26.5041 36.437 25.3412 36.6916V17.6117L31.2878 11.7251C31.9311 12.2028 32.7136 12.461 33.5178 12.461C34.2612 12.4523 34.9854 12.2261 35.5992 11.8109C36.2131 11.3957 36.6892 10.8101 36.9676 10.1277C37.246 9.44527 37.3143 8.6966 37.1639 7.97586C37.0135 7.25513 36.6511 6.59453 36.1223 6.0772C35.5935 5.55987 34.9219 5.20893 34.1921 5.06852C33.4623 4.92812 32.7069 5.00453 32.0209 5.28814C31.3348 5.57175 30.7489 6.04989 30.3367 6.6624C29.9245 7.2749 29.7046 7.9944 29.7045 8.73035C29.7085 9.15012 29.7865 9.56597 29.935 9.95918L23.1113 16.7067V37.4274C22.6865 37.6415 22.279 37.8875 21.8922 38.1632L20.7178 36.6327V22.0414L13.1508 14.5507C13.4101 14.0442 13.5475 13.4851 13.5521 12.9172C13.5536 12.1776 13.3334 11.4541 12.9194 10.8385C12.5054 10.2228 11.9161 9.74255 11.2263 9.4585C10.5364 9.17445 9.77694 9.09938 9.04396 9.24278C8.31098 9.38617 7.63746 9.7416 7.10862 10.2641C6.57978 10.7865 6.21941 11.4526 6.0731 12.1779C5.9268 12.9032 6.00114 13.6551 6.28673 14.3386C6.57231 15.022 7.05629 15.6063 7.67742 16.0173C8.29856 16.4284 9.02892 16.6478 9.77607 16.6478C10.4234 16.6452 11.0589 16.4752 11.6195 16.1548L18.4878 22.9538V37.4274L20.2866 39.7673C19.0441 41.3148 18.3953 43.2479 18.4551 45.2238C18.515 47.1997 19.2797 49.0908 20.6137 50.5618C20.7027 50.6873 20.819 50.7916 20.9539 50.867C21.0888 50.9424 21.2391 50.987 21.3936 50.9975C21.5482 51.0081 21.7032 50.9844 21.8473 50.9281C21.9915 50.8718 22.1211 50.7844 22.2267 50.6722C22.7619 50.1644 22.1301 49.0828 21.7212 48.4647C21.2616 47.8225 20.9264 47.1015 20.7326 46.3382C20.6255 45.8672 20.5706 45.3861 20.5691 44.9033C20.591 43.2616 21.2499 41.691 22.4096 40.5171C23.5692 39.3432 25.1405 38.6558 26.7981 38.5973C27.65 38.5767 28.4975 38.725 29.2907 39.0333C30.0839 39.3416 30.8068 39.8038 31.417 40.3927C32.0271 40.9816 32.5121 41.6853 32.8435 42.4624C33.175 43.2396 33.3461 44.0745 33.3468 44.918C33.3483 46.0745 33.024 47.2084 32.4102 48.1924C32.4102 48.1924 31.2358 49.4949 31.6669 50.2601C31.7214 50.3981 31.8075 50.5217 31.9185 50.6212C32.0295 50.7206 32.1623 50.7932 32.3064 50.8331C32.4506 50.8731 32.6021 50.8793 32.7491 50.8514C32.8961 50.8235 33.0346 50.7621 33.1535 50.6722C34.5438 49.2205 35.36 47.3221 35.4528 45.3239C35.5456 43.3257 34.9089 41.3612 33.659 39.7894C33.738 39.7285 33.8103 39.6594 33.8746 39.5833L35.7031 37.1993C35.8656 37.0172 35.9623 36.7868 35.9782 36.5444V28.8624L41.2855 23.6087H49.581C49.7563 24.2851 50.1199 24.8992 50.6304 25.3812C51.1409 25.8631 51.7778 26.1936 52.4686 26.3349C53.1595 26.4763 53.8765 26.4228 54.5382 26.1806C55.1999 25.9385 55.7796 25.5173 56.2115 24.9651C56.6433 24.4129 56.9099 23.7518 56.9809 23.057C57.0519 22.3622 56.9244 21.6616 56.6131 21.035C56.3017 20.4084 55.819 19.8808 55.2197 19.5124C54.6204 19.1439 53.9287 18.9494 53.2232 18.9509ZM33.4732 7.17777C33.7762 7.17783 34.0725 7.26646 34.3248 7.43257C34.5772 7.59867 34.7744 7.83483 34.8917 8.11144C35.0089 8.38805 35.0411 8.69278 34.9841 8.98741C34.9271 9.28204 34.7835 9.55345 34.5712 9.76759C34.359 9.98174 34.0877 10.1291 33.7912 10.1911C33.4947 10.2532 33.1863 10.2272 32.9047 10.1164C32.623 10.0056 32.3807 9.81498 32.2081 9.5684C32.0355 9.32182 31.9403 9.03028 31.9345 8.73035C31.9345 8.32571 32.0964 7.93753 32.3847 7.65071C32.6731 7.3639 33.0644 7.20179 33.4732 7.19985V7.17777ZM9.77607 14.4403C9.47207 14.4389 9.17532 14.3483 8.92326 14.1801C8.67121 14.0118 8.47515 13.7734 8.35983 13.495C8.24451 13.2165 8.2151 12.9105 8.2753 12.6155C8.33551 12.3206 8.48264 12.0499 8.69812 11.8376C8.9136 11.6253 9.18777 11.481 9.48604 11.4228C9.78431 11.3646 10.0933 11.3952 10.374 11.5107C10.6548 11.6262 10.8946 11.8214 11.0634 12.0717C11.2321 12.322 11.3222 12.6162 11.3222 12.9172C11.3222 13.1178 11.2821 13.3165 11.2043 13.5018C11.1266 13.687 11.0126 13.8553 10.8689 13.9968C10.7252 14.1383 10.5547 14.2504 10.3672 14.3265C10.1796 14.4026 9.97876 14.4413 9.77607 14.4403ZM53.2232 24.1826C52.9146 24.1838 52.6127 24.0936 52.3564 23.9236C52.1 23.7536 51.9009 23.5115 51.7847 23.2285C51.6684 22.9455 51.6404 22.6346 51.7042 22.3357C51.768 22.0368 51.9207 21.7637 52.1426 21.5514C52.3646 21.3392 52.6456 21.1975 52.9495 21.1447C53.2535 21.0918 53.5664 21.1302 53.8481 21.2549C54.1298 21.3797 54.3674 21.585 54.5302 21.8444C54.6931 22.1039 54.7738 22.4057 54.7619 22.711C54.7484 23.1059 54.5804 23.4802 54.2932 23.7548C54.0061 24.0294 53.6225 24.1828 53.2232 24.1826Z" fill="black"/>
<path d="M44.4125 6.06692L29.3369 20.7823C29.1214 20.9923 29.0003 21.2772 29 21.5745V30.879C29 31.1763 29.121 31.4614 29.3364 31.6717C29.5518 31.8819 29.8439 32 30.1485 32C30.4531 32 30.7452 31.8819 30.9606 31.6717C31.1759 31.4614 31.2969 31.1763 31.2969 30.879V22.0453L45.8442 7.84562C46.5069 8.33073 47.3128 8.59297 48.1412 8.59297C48.9088 8.58707 49.6574 8.35959 50.2928 7.93918C50.9282 7.51876 51.422 6.92422 51.7119 6.23043C52.0018 5.53664 52.075 4.77462 51.9221 4.04034C51.7692 3.30607 51.3971 2.63237 50.8527 2.10411C50.3083 1.57584 49.616 1.21662 48.8628 1.07169C48.1097 0.926768 47.3295 1.00261 46.6204 1.28968C45.9113 1.57674 45.3051 2.06219 44.8782 2.68488C44.4512 3.30758 44.2226 4.03967 44.221 4.78895C44.2243 5.21537 44.3047 5.63787 44.4584 6.03703L44.4125 6.06692ZM48.1029 3.24194C48.4185 3.24046 48.7274 3.33056 48.9905 3.5008C49.2536 3.67104 49.4589 3.91374 49.5804 4.19809C49.7018 4.48244 49.734 4.79561 49.6728 5.09785C49.6116 5.40008 49.4598 5.67775 49.2366 5.8956C49.0134 6.11345 48.729 6.26165 48.4193 6.32139C48.1097 6.38113 47.7889 6.34972 47.4975 6.23114C47.2062 6.11256 46.9576 5.91216 46.7832 5.65538C46.6088 5.39861 46.5165 5.09703 46.518 4.78895C46.52 4.37926 46.6876 3.98692 46.9844 3.69722C47.2812 3.40752 47.6832 3.2439 48.1029 3.24194Z" fill="black"/>
<path d="M13.0993 27.2812C12.9007 27.0681 12.6313 26.9482 12.3503 26.948H8.06775C7.86861 26.0544 7.37719 25.267 6.68268 24.7286C5.98817 24.1902 5.13658 23.9365 4.28246 24.0135C3.42834 24.0906 2.62828 24.4932 2.02748 25.1485C1.42668 25.8037 1.06496 26.6681 1.00794 27.5847C0.950924 28.5014 1.2024 29.4095 1.71673 30.1445C2.23106 30.8794 2.97416 31.3923 3.81119 31.5902C4.64821 31.788 5.52368 31.6577 6.27873 31.2229C7.03378 30.7881 7.61837 30.0776 7.92641 29.2202H11.905L14.1947 31.6667C14.2928 31.7726 14.4095 31.8566 14.5381 31.9138C14.6667 31.971 14.8046 32.0003 14.9438 32C15.2244 31.9973 15.493 31.8778 15.6929 31.6667C15.8897 31.4527 16 31.1643 16 30.8639C16 30.5634 15.8897 30.275 15.6929 30.061L13.0993 27.2812ZM4.59086 29.3945C4.30184 29.393 4.01972 29.2997 3.78009 29.1265C3.54045 28.9534 3.35406 28.708 3.24442 28.4214C3.13479 28.1347 3.10682 27.8197 3.16406 27.5161C3.2213 27.2125 3.36118 26.9338 3.56604 26.7153C3.7709 26.4968 4.03156 26.3482 4.31513 26.2883C4.5987 26.2284 4.89246 26.2599 5.15935 26.3788C5.42624 26.4977 5.65429 26.6986 5.81471 26.9563C5.97514 27.214 6.06076 27.5168 6.06076 27.8266C6.06077 28.0331 6.0227 28.2376 5.94874 28.4283C5.87478 28.6191 5.7664 28.7922 5.62981 28.9379C5.49323 29.0836 5.33113 29.1989 5.15283 29.2773C4.97454 29.3556 4.78356 29.3955 4.59086 29.3945Z" fill="black"/>
<path d="M19.7885 14.9993C19.9476 15.0014 20.1054 14.9729 20.2523 14.9157C20.3993 14.8585 20.5322 14.7738 20.643 14.6667C20.7561 14.5619 20.8459 14.4371 20.9072 14.2996C20.9684 14.162 21 14.0144 21 13.8653C21 13.7162 20.9684 13.5686 20.9072 13.4311C20.8459 13.2935 20.7561 13.1687 20.643 13.0639L17.4184 10.0399V1.13402C17.4184 0.833262 17.291 0.544819 17.0643 0.332148C16.8375 0.119477 16.5299 0 16.2092 0C15.8885 0 15.5809 0.119477 15.3542 0.332148C15.1274 0.544819 15 0.833262 15 1.13402V11.0076L18.9017 14.6667C19.0168 14.7768 19.1551 14.8632 19.3078 14.9205C19.4605 14.9778 19.6242 15.0046 19.7885 14.9993Z" fill="black"/>
<path d="M41.5327 55.5264C40.7715 55.5182 40.0274 55.7459 39.4078 56.1766C39.1148 55.7304 38.7142 55.3608 38.2408 55.1003C37.7674 54.8397 37.2357 54.6961 36.6922 54.6819C36.0422 54.6732 35.4041 54.8526 34.8589 55.1976C34.5687 54.6254 34.1225 54.142 33.5691 53.8006C33.0156 53.4591 32.3764 53.2728 31.7214 53.2619C31.2312 53.2598 30.7449 53.346 30.2869 53.516V45.7508V45.4892C30.1017 44.7692 29.672 44.1314 29.0675 43.6795C28.463 43.2276 27.7194 42.9883 26.9577 43.0004C26.1524 43.0459 25.3796 43.3249 24.7384 43.8017C24.0973 44.2785 23.6172 44.9313 23.3599 45.676L23.2909 45.8629V59.2035C22.3562 59.3445 21.5079 59.8169 20.909 60.5301C20.3101 61.2433 20.0027 62.1469 20.046 63.0674C20.046 64.4874 20.046 66.4306 20 68.1645C20 69.5696 20 70.8327 20 71.5875C20 73.5456 22.8153 76.7145 23.6821 77.6338C23.7879 77.7498 23.9179 77.8424 24.0635 77.9056C24.209 77.9687 24.3666 78.0009 24.5259 78C24.749 78.0001 24.9673 77.9371 25.1543 77.8186C25.3412 77.7 25.4888 77.5311 25.579 77.3323C25.6693 77.1336 25.6982 76.9135 25.6624 76.699C25.6266 76.4845 25.5276 76.2847 25.3774 76.1241C23.9199 74.5695 22.309 72.3199 22.309 71.5875C22.309 70.8551 22.309 69.5845 22.309 68.187C22.309 66.4456 22.355 64.4949 22.355 63.0674C22.3167 62.7435 22.3882 62.4163 22.5586 62.1356C22.7289 61.855 22.9888 61.6363 23.2986 61.5129V63.4486C23.2986 63.7459 23.4198 64.0311 23.6356 64.2413C23.8514 64.4516 24.144 64.5697 24.4492 64.5697C24.7544 64.5697 25.0471 64.4516 25.2629 64.2413C25.4786 64.0311 25.5999 63.7459 25.5999 63.4486V46.2964C25.7686 45.9675 26.2289 45.2426 26.9653 45.2426C27.1887 45.2284 27.4108 45.2858 27.5977 45.4058C27.7846 45.5259 27.9262 45.7021 28.0009 45.9077V63.6205C28.0009 63.9178 28.1222 64.203 28.3379 64.4132C28.5537 64.6234 28.8464 64.7416 29.1516 64.7416C29.4568 64.7416 29.7494 64.6234 29.9652 64.4132C30.181 64.203 30.3022 63.9178 30.3022 63.6205V56.3261C30.4448 56.0778 30.6531 55.8713 30.9054 55.728C31.1576 55.5848 31.4447 55.51 31.7367 55.5115C32.5652 55.5115 32.9334 56.3784 33.0408 56.6849V63.5607C33.0408 63.858 33.162 64.1432 33.3778 64.3534C33.5936 64.5637 33.8863 64.6818 34.1915 64.6818C34.4966 64.6818 34.7893 64.5637 35.0051 64.3534C35.2209 64.1432 35.3421 63.858 35.3421 63.5607V58.2693C35.4926 58.1245 35.5966 57.9401 35.6413 57.7387C35.7047 57.5204 35.8377 57.3274 36.0211 57.1877C36.2045 57.0479 36.4288 56.9687 36.6616 56.9614C37.3289 56.9614 37.8045 57.9629 37.9656 58.3963V63.7849C37.9656 64.0822 38.0869 64.3674 38.3027 64.5776C38.5184 64.7879 38.8111 64.906 39.1163 64.906C39.4215 64.906 39.7141 64.7879 39.9299 64.5776C40.1457 64.3674 40.267 64.0822 40.267 63.7849V58.4561C40.3925 58.2391 40.5771 58.06 40.8004 57.9387C41.0238 57.8174 41.2772 57.7585 41.5327 57.7686C42.1847 57.7686 42.6296 58.77 42.7677 59.196V72.2751C42.7677 73.0225 41.4943 74.8012 40.2976 76.012C40.153 76.1709 40.0572 76.3663 40.0215 76.5758C39.9857 76.7854 40.0114 77.0005 40.0955 77.1964C40.1797 77.3924 40.3189 77.5612 40.4971 77.6835C40.6753 77.8059 40.8854 77.8767 41.1031 77.8879C41.2584 77.8872 41.412 77.8558 41.5545 77.7954C41.6969 77.735 41.8252 77.6469 41.9316 77.5366C42.4532 77.0134 45 74.2706 45 72.2452V59.0391V58.77C44.7008 57.5668 43.6269 55.5264 41.5327 55.5264Z" fill="black"/>
</svg>
