<svg width="36" height="36" viewBox="0 0 36 36" fill="none" xmlns="http://www.w3.org/2000/svg">
<path d="M24.678 19.278C24.8419 19.1068 24.9703 18.905 25.056 18.684C25.236 18.2458 25.236 17.7542 25.056 17.316C24.9703 17.0951 24.8419 16.8932 24.678 16.722L19.278 11.322C18.9391 10.9831 18.4793 10.7926 18 10.7926C17.5207 10.7926 17.061 10.9831 16.722 11.322C16.3831 11.661 16.1926 12.1207 16.1926 12.6C16.1926 13.0793 16.3831 13.5391 16.722 13.878L19.062 16.2H12.6C12.1226 16.2 11.6648 16.3896 11.3272 16.7272C10.9896 17.0648 10.8 17.5226 10.8 18C10.8 18.4774 10.9896 18.9352 11.3272 19.2728C11.6648 19.6104 12.1226 19.8 12.6 19.8H19.062L16.722 22.122C16.5533 22.2893 16.4194 22.4884 16.328 22.7078C16.2366 22.9271 16.1896 23.1624 16.1896 23.4C16.1896 23.6376 16.2366 23.8729 16.328 24.0922C16.4194 24.3116 16.5533 24.5107 16.722 24.678C16.8893 24.8467 17.0884 24.9806 17.3078 25.072C17.5271 25.1634 17.7624 25.2104 18 25.2104C18.2376 25.2104 18.4729 25.1634 18.6922 25.072C18.9116 24.9806 19.1107 24.8467 19.278 24.678L24.678 19.278ZM36 18C36 14.4399 34.9443 10.9598 32.9665 7.99974C30.9886 5.03966 28.1774 2.73255 24.8883 1.37018C21.5992 0.00779911 17.98 -0.348661 14.4884 0.345873C10.9967 1.04041 7.78943 2.75474 5.27209 5.27209C2.75474 7.78943 1.04041 10.9967 0.345873 14.4884C-0.348661 17.98 0.00779911 21.5992 1.37018 24.8883C2.73255 28.1774 5.03966 30.9886 7.99974 32.9665C10.9598 34.9443 14.4399 36 18 36C22.7739 36 27.3523 34.1036 30.7279 30.7279C34.1036 27.3523 36 22.7739 36 18ZM3.60001 18C3.60001 15.152 4.44455 12.3679 6.02684 9.99979C7.60914 7.63173 9.85811 5.78604 12.4894 4.69614C15.1206 3.60624 18.016 3.32107 20.8093 3.8767C23.6026 4.43233 26.1685 5.80379 28.1823 7.81767C30.1962 9.83154 31.5677 12.3974 32.1233 15.1907C32.6789 17.984 32.3938 20.8794 31.3039 23.5106C30.214 26.1419 28.3683 28.3909 26.0002 29.9732C23.6321 31.5555 20.8481 32.4 18 32.4C14.1809 32.4 10.5182 30.8829 7.81767 28.1823C5.11715 25.4818 3.60001 21.8191 3.60001 18Z" fill="#00FFBB"/>
</svg>
