<svg width="62" height="68" viewBox="0 0 62 68" fill="none" xmlns="http://www.w3.org/2000/svg">
<circle cx="31" cy="31" r="29.5" fill="#00FFBB" stroke="#00FFA8" stroke-width="3"/>
<path d="M31.0139 52C26.6615 52.0027 22.4061 50.7145 18.7861 48.2981C15.1661 45.8818 12.3442 42.446 10.6773 38.4254C9.01047 34.4049 8.57362 29.9803 9.42206 25.7114C10.2705 21.4425 12.3661 17.5213 15.4437 14.4437C18.5212 11.3661 22.4425 9.27049 26.7114 8.42206C30.9803 7.57363 35.4049 8.01047 39.4254 9.67732C43.446 11.3442 46.8818 14.1661 49.2981 17.7861C51.7144 21.4061 53.0027 25.6615 53 30.0139C52.989 35.8416 50.6691 41.4274 46.5483 45.5483C42.4274 49.6691 36.8416 51.989 31.0139 52ZM31.0139 10.0827C27.0746 10.0799 23.223 11.2454 19.9461 13.4316C16.6692 15.6179 14.1141 18.7268 12.6041 22.3651C11.0941 26.0035 10.6969 30.0079 11.4627 33.8721C12.2285 37.7362 14.123 41.2864 16.9065 44.0738C19.6901 46.8613 23.2377 48.7607 27.1007 49.5319C30.9638 50.3031 34.9687 49.9115 38.6092 48.4065C42.2497 46.9016 45.3621 44.3509 47.5529 41.077C49.7438 37.8032 50.9146 33.9532 50.9173 30.0139C50.9155 24.7332 48.8188 19.6689 45.0874 15.9322C41.356 12.1956 36.2946 10.0919 31.0139 10.0827Z" fill="black"/>
<path d="M27.5725 39L21.327 32.7741C21.1175 32.5619 21 32.2759 21 31.978C21 31.68 21.1175 31.3941 21.327 31.1819C21.4313 31.0765 21.5555 30.9929 21.6924 30.9358C21.8293 30.8787 21.9762 30.8493 22.1246 30.8493C22.273 30.8493 22.4199 30.8787 22.5568 30.9358C22.6938 30.9929 22.818 31.0765 22.9223 31.1819L27.5725 35.8157L39.0778 24.3326C39.182 24.2272 39.3062 24.1436 39.4432 24.0865C39.5801 24.0294 39.727 24 39.8754 24C40.0238 24 40.1707 24.0294 40.3076 24.0865C40.4445 24.1436 40.5687 24.2272 40.673 24.3326C40.8825 24.5448 41 24.8307 41 25.1287C41 25.4266 40.8825 25.7126 40.673 25.9248L27.5725 39Z" fill="black"/>
<path d="M31 47C27.6383 47 24.352 46.0033 21.5567 44.1359C18.7614 42.2685 16.5824 39.6143 15.2953 36.5087C14.0082 33.4031 13.6708 29.9857 14.3257 26.6884C14.9806 23.3911 16.5983 20.3619 18.9745 17.9839C21.3506 15.6059 24.3785 13.9857 27.6753 13.3283C30.9721 12.6708 34.3898 13.0056 37.4964 14.2902C40.603 15.5749 43.2589 17.7517 45.1285 20.5456C46.9981 23.3395 47.9974 26.625 48 29.9867C48 34.4966 46.2094 38.822 43.0216 42.0122C39.8339 45.2024 35.5099 46.9965 31 47ZM31 15C28.0327 15 25.1321 15.8801 22.6651 17.5289C20.198 19.1777 18.2755 21.5212 17.1405 24.2628C16.0056 27.0045 15.7093 30.0212 16.2892 32.9313C16.8691 35.8413 18.299 38.5141 20.3981 40.6113C22.4972 42.7086 25.1712 44.1361 28.0818 44.7134C30.9924 45.2907 34.0088 44.9917 36.7495 43.8544C39.4902 42.717 41.8319 40.7923 43.4785 38.3239C45.1251 35.8554 46.0026 32.954 46 29.9867C45.9912 26.013 44.4074 22.2049 41.5957 19.3969C38.7839 16.5889 34.9737 15.0102 31 15.0067V15Z" fill="black"/>
<path d="M40.9667 68C40.8067 67.9987 40.6495 67.9586 40.5082 67.883L31.065 63.0669L21.485 67.883C21.3276 67.9621 21.1526 67.9991 20.9768 67.9905C20.8011 67.982 20.6304 67.9281 20.4813 67.8342C20.3322 67.7402 20.2097 67.6093 20.1254 67.454C20.0411 67.2987 19.998 67.1242 20.0001 66.9473C20.0001 66.8304 20.1301 55.0927 20.1164 48.3019C20.116 48.1239 20.1614 47.9488 20.2482 47.7937C20.335 47.6385 20.4603 47.5086 20.6118 47.4165C20.7633 47.3244 20.936 47.2732 21.113 47.268C21.2899 47.2629 21.4652 47.3038 21.6218 47.3869C24.5303 48.9383 27.7804 49.7288 31.0726 49.6855C34.3648 49.6422 37.5932 48.7665 40.4603 47.1392C40.6174 47.048 40.7956 47 40.977 47C41.1584 47 41.3365 47.048 41.4936 47.1392C41.6485 47.2307 41.7767 47.3615 41.8656 47.5184C41.9545 47.6754 42.0008 47.853 42 48.0336V66.968C41.9982 67.2411 41.8895 67.5026 41.6974 67.6957C41.5053 67.8889 41.2452 67.9982 40.9736 68H40.9667ZM22.1419 49.9463C22.1419 55.1478 22.0735 62.1312 22.0461 65.2892L30.6134 61.0235C30.7553 60.9504 30.9125 60.9123 31.0719 60.9123C31.2313 60.9123 31.3885 60.9504 31.5304 61.0235L39.9403 65.2892V49.7055C37.1603 51.0084 34.1371 51.7036 31.0702 51.7451C28.0033 51.7866 24.9626 51.1735 22.1487 49.9463H22.1419Z" fill="black"/>
</svg>
