<svg width="68" height="70" viewBox="0 0 68 70" fill="none" xmlns="http://www.w3.org/2000/svg">
<circle cx="31" cy="39" r="29.5" fill="#00FFBB" stroke="#00FFA8" stroke-width="3"/>
<path d="M64.023 38.2454C63.0975 38.2488 62.2022 38.5672 61.4912 39.1457C60.7802 39.7243 60.298 40.5268 60.1277 41.415H51.0689L47.9285 38.3264C47.8238 38.223 47.6992 38.1409 47.5619 38.0849C47.4245 38.0289 47.2771 38 47.1283 38C46.9794 38 46.832 38.0289 46.6947 38.0849C46.5573 38.1409 46.4327 38.223 46.3281 38.3264C46.1178 38.5347 46 38.8154 46 39.1078C46 39.4002 46.1178 39.6809 46.3281 39.8892L50.1554 43.6264H60.3692C60.6479 44.273 61.1009 44.8337 61.6801 45.2487C62.2592 45.6637 62.9429 45.9175 63.6581 45.983C64.3734 46.0486 65.0934 45.9234 65.7416 45.6209C66.3897 45.3184 66.9417 44.8499 67.3387 44.2652C67.7356 43.6806 67.9628 43.0017 67.9958 42.301C68.0288 41.6003 67.8666 40.9039 67.5263 40.2861C67.186 39.6683 66.6805 39.1522 66.0635 38.7929C65.4466 38.4335 64.7413 38.2443 64.023 38.2454ZM64.023 43.7812C63.6852 43.7812 63.3551 43.6833 63.0743 43.5C62.7936 43.3166 62.5749 43.056 62.446 42.7511C62.3171 42.4463 62.2838 42.1109 62.3502 41.7876C62.4167 41.4642 62.5799 41.1674 62.8193 40.9347C63.0586 40.702 63.3633 40.544 63.6948 40.4805C64.0262 40.4171 64.3695 40.4511 64.6811 40.5783C64.9927 40.7055 65.2586 40.9202 65.4452 41.1952C65.6317 41.4701 65.7305 41.7929 65.729 42.1227C65.729 42.3411 65.6848 42.5574 65.599 42.7591C65.5132 42.9608 65.3874 43.144 65.2289 43.2981C65.0704 43.4522 64.8822 43.5742 64.6753 43.6571C64.4683 43.74 64.2466 43.7822 64.023 43.7812Z" fill="black"/>
<path d="M49.0405 45.3549C48.4269 45.3575 47.8228 45.5018 47.279 45.7756L39.2094 38H22.1291C21.8297 38 21.5425 38.1146 21.3307 38.3187C21.119 38.5227 21 38.7995 21 39.088C21 39.3766 21.119 39.6533 21.3307 39.8573C21.5425 40.0614 21.8297 40.176 22.1291 40.176H38.2759L45.6304 47.2698C45.2723 47.8491 45.0825 48.5105 45.0809 49.1847C45.0809 49.9393 45.3131 50.677 45.7482 51.3044C46.1833 51.9318 46.8017 52.4208 47.5252 52.7096C48.2487 52.9983 49.0449 53.0739 49.8129 52.9267C50.581 52.7795 51.2865 52.4161 51.8403 51.8825C52.394 51.349 52.7711 50.6691 52.9239 49.929C53.0767 49.189 52.9983 48.4218 52.6986 47.7247C52.3989 47.0275 51.8914 46.4317 51.2403 46.0124C50.5891 45.5932 49.8236 45.3694 49.0405 45.3694V45.3549ZM49.0405 50.8022C48.7027 50.8036 48.3722 50.7081 48.091 50.5279C47.8097 50.3477 47.5905 50.0909 47.4613 49.7902C47.3321 49.4895 47.2986 49.1586 47.3653 48.8395C47.4319 48.5205 47.5956 48.2278 47.8355 47.9987C48.0754 47.7696 48.3806 47.6145 48.7123 47.5531C49.044 47.4917 49.3872 47.5269 49.698 47.6541C50.0089 47.7813 50.2735 47.9948 50.458 48.2674C50.6425 48.54 50.7387 48.8593 50.7342 49.1847C50.7283 49.6144 50.5474 50.0247 50.2307 50.3273C49.9139 50.6298 49.4865 50.8004 49.0405 50.8022Z" fill="black"/>
<path d="M14.3038 23.3815C14.5289 23.3354 14.7318 23.2081 14.8773 23.0216C15.0228 22.8352 15.102 22.6011 15.1011 22.3599V18.0445C15.1011 17.7675 14.9965 17.5018 14.8103 17.3059C14.624 17.11 14.3714 17 14.1081 17H1.88656C1.62318 17 1.37058 17.11 1.18434 17.3059C0.998099 17.5018 0.89347 17.7675 0.89347 18.0445V22.4132C0.906046 22.647 0.99292 22.8695 1.14015 23.0451C1.28737 23.2207 1.48642 23.3392 1.70534 23.3815L0.255575 24.8683C0.076418 25.0909 -0.0144255 25.3776 0.00186648 25.6688V40.8564C0.00186648 41.1597 0.116424 41.4506 0.320336 41.665C0.524249 41.8795 0.800813 42 1.08919 42H14.9127C15.2011 42 15.4776 41.8795 15.6815 41.665C15.8854 41.4506 16 41.1597 16 40.8564V25.6078C16 25.4522 15.9697 25.2982 15.9111 25.1553C15.8526 25.0124 15.7669 24.8836 15.6593 24.7768L14.3038 23.3815ZM2.87965 19.0357H13.115V21.323H2.87965V19.0357ZM13.8254 39.6975H2.17651V26.172L3.71326 24.5557H12.3031L13.8254 26.0805V39.6975Z" fill="black"/>
<path d="M9.05115 29H6.94885V30.9437H5V33.0563H6.94885V35H9.05115V33.0563H11V30.9437H9.05115V29Z" fill="black"/>
<path d="M22.157 24H32.6623C32.9691 23.9997 33.2631 23.8838 33.4799 23.6777L39.9821 17.5024C40.1991 17.2965 40.3212 17.0173 40.3215 16.7259V7.45204C41.2351 7.14118 42.0004 6.52848 42.4776 5.72592C42.9548 4.92335 43.112 3.98451 42.9205 3.08095C42.729 2.1774 42.2015 1.36946 41.4345 0.804771C40.6675 0.240086 39.7121 -0.0436358 38.743 0.00545091C37.7739 0.0545377 36.8558 0.433155 36.1564 1.07212C35.4569 1.71108 35.023 2.56772 34.9337 3.4855C34.8445 4.40328 35.1059 5.32091 35.6703 6.07072C36.2347 6.82053 37.0643 7.35243 38.0075 7.56925V16.2718L32.1841 21.8024H22.157C21.8501 21.8024 21.5558 21.9182 21.3389 22.1242C21.1219 22.3303 21 22.6098 21 22.9012C21 23.1926 21.1219 23.4721 21.3389 23.6782C21.5558 23.8842 21.8501 24 22.157 24ZM37.2285 3.84065C37.2285 3.51322 37.3307 3.19314 37.5223 2.92089C37.7138 2.64864 37.9861 2.43644 38.3046 2.31114C38.6231 2.18584 38.9736 2.15305 39.3118 2.21693C39.6499 2.28081 39.9605 2.43848 40.2043 2.67001C40.4481 2.90154 40.6141 3.19653 40.6814 3.51767C40.7486 3.83881 40.7141 4.17168 40.5822 4.47419C40.4502 4.7767 40.2268 5.03526 39.9401 5.21717C39.6535 5.39908 39.3165 5.49618 38.9717 5.49618C38.5094 5.49618 38.066 5.32176 37.7391 5.01128C37.4122 4.70081 37.2285 4.27972 37.2285 3.84065Z" fill="black"/>
<path d="M22.1936 30H25.8064C26.1229 30 26.4265 29.842 26.6504 29.5607C26.8742 29.2794 27 28.8978 27 28.5C27 28.1022 26.8742 27.7206 26.6504 27.4393C26.4265 27.158 26.1229 27 25.8064 27H22.1936C21.8771 27 21.5735 27.158 21.3496 27.4393C21.1258 27.7206 21 28.1022 21 28.5C21 28.8978 21.1258 29.2794 21.3496 29.5607C21.5735 29.842 21.8771 30 22.1936 30Z" fill="black"/>
<path d="M39.2833 26.8027H30.1057C29.8125 26.8027 29.5312 26.9184 29.3239 27.1245C29.1165 27.3305 29 27.6099 29 27.9013C29 28.1927 29.1165 28.4722 29.3239 28.6782C29.5312 28.8842 29.8125 29 30.1057 29H39.7404C39.8868 29.0008 40.0319 28.9728 40.1673 28.9174C40.3027 28.8621 40.4257 28.7806 40.5291 28.6777L55.7883 13.5089C55.7883 13.5089 55.7883 13.465 55.8325 13.4504C56.6051 13.7258 57.4459 13.7496 58.233 13.5183C59.0201 13.287 59.7125 12.8125 60.2099 12.1638C60.7073 11.5151 60.9838 10.7257 60.9993 9.91034C61.0148 9.09494 60.7685 8.29584 60.296 7.62893C59.8236 6.96201 59.1496 6.46197 58.3719 6.20131C57.5941 5.94065 56.753 5.93293 55.9706 6.17927C55.1881 6.42561 54.5049 6.91319 54.0202 7.57132C53.5354 8.22945 53.2743 9.02389 53.2746 9.83944C53.2666 10.6624 53.525 11.4661 54.0118 12.132L39.2833 26.8027ZM57.1447 8.19146C57.4748 8.19001 57.7979 8.28604 58.073 8.46737C58.3481 8.6487 58.5628 8.90715 58.6898 9.20991C58.8168 9.51268 58.8504 9.84611 58.7863 10.1679C58.7223 10.4897 58.5635 10.7853 58.33 11.0172C58.0966 11.2492 57.7991 11.407 57.4752 11.4706C57.1514 11.5342 56.8158 11.5008 56.5111 11.3746C56.2064 11.2485 55.9463 11.0352 55.7638 10.7618C55.5813 10.4885 55.4846 10.1674 55.4861 9.83944C55.488 9.40296 55.6634 8.98491 55.974 8.67627C56.2846 8.36763 56.7054 8.19338 57.1447 8.19146Z" fill="black"/>
<path d="M58.159 30.3423L54.3202 34.8232C54.1673 35.0016 54.0631 35.2287 54.021 35.476C53.9788 35.7233 54.0005 35.9795 54.0833 36.2124C54.1661 36.4453 54.3062 36.6445 54.4861 36.7846C54.6659 36.9248 54.8774 36.9997 55.0938 36.9999C55.3805 37.0037 55.6575 36.8789 55.8674 36.6513L59.7062 32.1449C59.8996 31.9031 60.0048 31.5833 59.9998 31.2529C59.9948 30.9225 59.8799 30.6072 59.6794 30.3736C59.4788 30.1399 59.2082 30.006 58.9246 30.0002C58.641 29.9944 58.3665 30.117 58.159 30.3423Z" fill="black"/>
<path d="M22.1114 36H44.5764L51.7263 28.7295C52.1451 28.8922 52.5894 28.9764 53.0378 28.9779C53.9235 28.9859 54.7858 28.6896 55.4848 28.1371C56.1838 27.5845 56.6784 26.8081 56.8882 25.934C57.098 25.0599 57.0108 24.1394 56.6406 23.322C56.2705 22.5046 55.6392 21.8383 54.8492 21.4314C54.0593 21.0244 53.1571 20.9007 52.2892 21.0803C51.4213 21.2599 50.6387 21.7322 50.0684 22.4207C49.4981 23.1091 49.1737 23.9731 49.1478 24.8725C49.122 25.7718 49.3961 26.6536 49.9259 27.3747L43.6576 33.7421H22.1114C21.8166 33.7421 21.5339 33.861 21.3255 34.0727C21.1171 34.2845 21 34.5716 21 34.871C21 35.1705 21.1171 35.4576 21.3255 35.6693C21.5339 35.8811 21.8166 36 22.1114 36ZM53.0378 23.3255C53.3693 23.324 53.6937 23.4225 53.9701 23.6085C54.2464 23.7945 54.4622 24.0596 54.5901 24.3703C54.718 24.681 54.7522 25.0232 54.6884 25.3537C54.6246 25.6841 54.4657 25.9879 54.2319 26.2266C53.998 26.4652 53.6996 26.6279 53.3746 26.6942C53.0496 26.7604 52.7125 26.7272 52.4061 26.5987C52.0997 26.4702 51.8377 26.2522 51.6534 25.9723C51.4691 25.6924 51.3707 25.3632 51.3707 25.0265C51.3707 24.5767 51.5461 24.1451 51.8585 23.8264C52.1709 23.5076 52.5949 23.3275 53.0378 23.3255Z" fill="black"/>
</svg>
