<svg width="284" height="46" viewBox="0 0 284 46" fill="none" xmlns="http://www.w3.org/2000/svg">
<path d="M58.006 12.598C60.526 12.598 61.618 11.296 61.618 9.532V8.608C61.618 6.844 60.526 5.542 58.006 5.542C55.486 5.542 54.394 6.844 54.394 8.608V9.532C54.394 11.296 55.486 12.598 58.006 12.598ZM54.898 37H61.114V14.95H54.898V37Z" fill="#333333"/>
<path d="M73.1316 37V22.72C73.1316 20.536 74.9796 19.486 76.7856 19.486C78.8016 19.486 79.8096 20.83 79.8096 23.686V37H86.0256V22.72C86.0256 20.536 87.8316 19.486 89.6796 19.486C91.7376 19.486 92.7036 20.83 92.7036 23.686V37H98.9196V23.182C98.9196 17.638 96.5676 14.446 92.3256 14.446C88.9656 14.446 86.4036 16.42 85.6056 18.898H85.4796C84.5136 16 82.3296 14.446 79.3056 14.446C76.0296 14.446 74.1816 16.336 73.3836 18.688H73.1316V14.95H66.9156V37H73.1316Z" fill="#333333"/>
<path d="M104.445 45.4H110.661V33.304H110.871C111.501 35.698 113.937 37.504 116.793 37.504C122.379 37.504 125.277 33.43 125.277 25.954C125.277 18.478 122.379 14.446 116.793 14.446C113.937 14.446 111.501 16.21 110.871 18.646H110.661V14.95H104.445V45.4ZM114.735 32.464C112.383 32.464 110.661 31.246 110.661 29.23V22.72C110.661 20.704 112.383 19.486 114.735 19.486C117.087 19.486 118.809 21.292 118.809 24.064V27.886C118.809 30.658 117.087 32.464 114.735 32.464Z" fill="#333333"/>
<path d="M130.844 37H137.06V19.78H141.47V14.95H137.06V10.75H141.47V5.92H137.438C133.154 5.92 130.844 8.104 130.844 12.346V14.95H127.736V19.78H130.844V37Z" fill="#333333"/>
<path d="M156.351 37V32.17H152.319V19.78H156.687V14.95H152.319V8.986H146.733V12.598C146.733 14.11 146.229 14.95 144.549 14.95H142.995V19.78H146.103V30.574C146.103 34.774 148.371 37 152.655 37H156.351Z" fill="#333333"/>
<path d="M170.039 37.504C174.071 37.504 177.305 36.118 179.279 33.85L176.171 29.986C174.785 31.414 173.357 32.632 170.753 32.632C167.435 32.632 165.881 30.784 165.881 27.886V27.55H180.035V25.702C180.035 19.738 177.095 14.446 169.787 14.446C163.151 14.446 159.455 18.982 159.455 25.954C159.455 33.01 163.277 37.504 170.039 37.504ZM169.913 19.024C172.391 19.024 173.609 20.83 173.609 23.518V23.896H165.881V23.56C165.881 20.83 167.435 19.024 169.913 19.024Z" fill="#333333"/>
<path d="M190.641 37V24.106C190.641 21.544 192.405 20.746 196.017 20.746H197.571V14.95H196.479C193.035 14.95 191.355 17.302 190.851 19.738H190.641V14.95H184.425V37H190.641Z" fill="#333333"/>
<path d="M207.622 37V22.72C207.622 20.536 209.47 19.486 211.276 19.486C213.292 19.486 214.3 20.83 214.3 23.686V37H220.516V22.72C220.516 20.536 222.322 19.486 224.17 19.486C226.228 19.486 227.194 20.83 227.194 23.686V37H233.41V23.182C233.41 17.638 231.058 14.446 226.816 14.446C223.456 14.446 220.894 16.42 220.096 18.898H219.97C219.004 16 216.82 14.446 213.796 14.446C210.52 14.446 208.672 16.336 207.874 18.688H207.622V14.95H201.406V37H207.622Z" fill="#333333"/>
<path d="M242.547 37.462C245.067 37.462 246.243 36.034 246.243 34.102V33.262C246.243 31.33 245.067 29.902 242.547 29.902C240.027 29.902 238.851 31.33 238.851 33.262V34.102C238.851 36.034 240.027 37.462 242.547 37.462Z" fill="#333333"/>
<path d="M255.045 12.598C257.565 12.598 258.657 11.296 258.657 9.532V8.608C258.657 6.844 257.565 5.542 255.045 5.542C252.525 5.542 251.433 6.844 251.433 8.608V9.532C251.433 11.296 252.525 12.598 255.045 12.598ZM251.937 37H258.153V14.95H251.937V37Z" fill="#333333"/>
<path d="M270.171 37V22.72C270.171 20.536 272.145 19.486 274.161 19.486C276.429 19.486 277.227 20.872 277.227 23.686V37H283.443V23.182C283.443 17.638 281.049 14.446 276.555 14.446C273.069 14.446 271.221 16.378 270.423 18.688H270.171V14.95H263.955V37H270.171Z" fill="#333333"/>
<mask id="path-2-inside-1_343_810" fill="white">
<rect y="3" width="38.7" height="36" rx="2"/>
</mask>
<rect y="3" width="38.7" height="36" rx="2" stroke="#00FFA8" stroke-width="10" mask="url(#path-2-inside-1_343_810)"/>
<line x1="26.45" y1="16.5355" x2="17.3855" y2="25.6" stroke="#00FFA8" stroke-width="5" stroke-linecap="round"/>
<line x1="13.4355" y1="21.9" x2="17.1" y2="25.5645" stroke="#00FFA8" stroke-width="5" stroke-linecap="round"/>
<line x1="14.35" y1="2.5" x2="14.35" y2="8.5" stroke="#00FFA8" stroke-width="5" stroke-linecap="round"/>
<line x1="25.5" y1="2.5" x2="25.5" y2="8.5" stroke="#00FFA8" stroke-width="5" stroke-linecap="round"/>
</svg>
