<svg width="62" height="62" viewBox="0 0 62 62" fill="none" xmlns="http://www.w3.org/2000/svg">
<circle cx="31" cy="31" r="29.5" fill="#00FFBB" stroke="#00FFA8" stroke-width="3"/>
<path d="M31.3735 10L48.5332 17.1123C49.7416 17.6093 49.9979 18.0406 49.9979 19.3052C49.9979 22.0024 49.9979 24.6924 49.9979 27.3896C50.0478 31.5878 49.1912 35.7474 47.4863 39.5856C45.7815 43.4238 43.2685 46.8506 40.1181 49.6328C37.6659 51.8275 34.8542 53.5854 31.8056 54.8299C31.5583 54.942 31.2899 55 31.0183 55C30.7467 55 30.4783 54.942 30.231 54.8299C21.0176 50.7999 15.1879 43.9142 12.7417 34.1729C12.2274 32.0185 11.9814 29.8089 12.0093 27.5943V19.0932C11.967 18.6799 12.0694 18.2648 12.299 17.9184C12.5287 17.5719 12.8714 17.3155 13.269 17.1927L30.2236 10.1827L30.6704 10H31.3735ZM47.398 24.7216C47.398 23.0842 47.398 21.4396 47.398 19.8022C47.4213 19.6758 47.3967 19.5452 47.329 19.4359C47.2614 19.3265 47.1555 19.246 47.0318 19.2101L31.3735 12.7411C31.2575 12.6929 31.133 12.668 31.0073 12.668C30.8816 12.668 30.7571 12.6929 30.6411 12.7411C25.4119 14.8901 20.1974 17.0611 14.9755 19.2101C14.8515 19.2428 14.7437 19.3195 14.6722 19.4258C14.6008 19.5321 14.5706 19.6607 14.5873 19.7876C14.5873 22.324 14.5287 24.8678 14.5873 27.4042C14.6181 29.198 14.8043 30.9858 15.1439 32.7476C17.1506 41.753 22.3432 48.2294 30.6411 52.2423C30.7538 52.3025 30.8795 52.334 31.0073 52.334C31.1351 52.334 31.2608 52.3025 31.3735 52.2423C35.3585 50.417 38.8432 47.6587 41.5316 44.2017C44.5772 40.3915 46.5086 35.8154 47.1124 30.9786C47.376 28.9392 47.2808 26.8268 47.398 24.7216Z" fill="black"/>
<path d="M29.7978 32.6088L31.3748 31.1227C33.0458 29.5658 34.7117 28.0066 36.3725 26.445C36.5882 26.2322 36.8695 26.0867 37.1778 26.0284C37.4861 25.9702 37.8063 26.0019 38.0943 26.1194C38.3834 26.2256 38.6275 26.4163 38.7897 26.6627C38.9519 26.9091 39.0233 27.1978 38.9933 27.4852C38.9459 27.8331 38.7896 28.1604 38.5438 28.4264C36.0069 30.8255 33.4471 33.1962 30.8796 35.5669C30.7375 35.7038 30.5671 35.8128 30.3786 35.8872C30.1901 35.9616 29.9874 36 29.7826 36C29.5778 36 29.3751 35.9616 29.1866 35.8872C28.9981 35.8128 28.8277 35.7038 28.6855 35.5669C27.2685 34.2647 25.8566 32.9556 24.4497 31.6393C24.3071 31.5068 24.194 31.3496 24.1169 31.1766C24.0397 31.0036 24 30.8181 24 30.6308C24 30.4436 24.0397 30.2581 24.1169 30.0851C24.194 29.9121 24.3071 29.7548 24.4497 29.6224C24.5922 29.49 24.7615 29.3849 24.9478 29.3133C25.134 29.2416 25.3337 29.2047 25.5353 29.2047C25.7369 29.2047 25.9366 29.2416 26.1228 29.3133C26.3091 29.3849 26.4784 29.49 26.6209 29.6224C27.6037 30.4928 28.5408 31.3987 29.5159 32.262C29.5921 32.354 29.6683 32.4602 29.7978 32.6088Z" fill="black"/>
</svg>
